<svg width="64" height="64" viewBox="0 0 64 64" fill="none" xmlns="http://www.w3.org/2000/svg">
<g id="Iconos/Intereses/Control">
<rect width="64" height="64" rx="8" fill="#5D8AAB"/>
<path id="Control" d="M45.9804 27.5841C45.9772 27.5371 45.9735 27.4901 45.9692 27.4433C45.8451 25.426 45.0574 23.5371 43.7646 22.1563C42.4717 20.7756 40.7695 20.0052 39 20.0001H25C23.2057 19.9908 21.4776 20.7741 20.1766 22.1864C18.8756 23.5987 18.1023 25.5308 18.0182 27.5793C18.0042 27.7057 18 27.8369 18 27.9841V38.4C18 39.88 18.5222 41.3248 19.4308 42.3616C20.3531 43.4088 21.5999 43.9976 22.9 44C25.42 44 26.4056 42.4 27.8 39.2C28.0044 38.7328 29.1888 36 32 36C34.7944 36 35.9942 38.7312 36.2 39.2C37.6056 42.4 38.58 44 41.1 44C42.395 44 43.6592 43.4032 44.5664 42.3648C45.4827 41.3107 45.9979 39.8859 46 38.4V28.0001C46 27.8481 45.9944 27.7121 45.9804 27.5841ZM25 31.2496C24.6271 31.2593 24.2563 31.1837 23.9094 31.0273C23.5624 30.8709 23.2463 30.6369 22.9796 30.3389C22.7128 30.041 22.5009 29.6851 22.3561 29.2923C22.2114 28.8995 22.1368 28.4775 22.1367 28.0513C22.1366 27.625 22.211 27.203 22.3556 26.8101C22.5002 26.4172 22.712 26.0612 22.9786 25.7631C23.2452 25.465 23.5612 25.2308 23.9081 25.0742C24.255 24.9177 24.6257 24.8418 24.9986 24.8513C25.7302 24.8698 26.4264 25.2148 26.9381 25.8126C27.4499 26.4104 27.7365 27.2134 27.7367 28.0497C27.7369 28.886 27.4506 29.6891 26.9391 30.2872C26.4276 30.8853 25.7316 31.2307 25 31.2496ZM39 23.2497C39.3713 23.2497 39.7274 23.4182 39.99 23.7183C40.2525 24.0184 40.4 24.4253 40.4 24.8497C40.4 25.274 40.2525 25.681 39.99 25.981C39.7274 26.2811 39.3713 26.4497 39 26.4497C38.6287 26.4497 38.2726 26.2811 38.01 25.981C37.7475 25.681 37.6 25.274 37.6 24.8497C37.6 24.4253 37.7475 24.0184 38.01 23.7183C38.2726 23.4182 38.6287 23.2497 39 23.2497ZM36.2 29.6496C35.8287 29.6496 35.4726 29.4811 35.2101 29.181C34.9475 28.881 34.8 28.474 34.8 28.0497C34.8 27.6253 34.9475 27.2183 35.2101 26.9183C35.4726 26.6182 35.8287 26.4497 36.2 26.4497C36.5713 26.4497 36.9274 26.6182 37.1899 26.9183C37.4525 27.2183 37.6 27.6253 37.6 28.0497C37.6 28.474 37.4525 28.881 37.1899 29.181C36.9274 29.4811 36.5713 29.6496 36.2 29.6496ZM39 32.8496C38.6287 32.8496 38.2726 32.6811 38.01 32.381C37.7475 32.081 37.6 31.674 37.6 31.2496C37.6 30.8253 37.7475 30.4183 38.01 30.1183C38.2726 29.8182 38.6287 29.6496 39 29.6496C39.3713 29.6496 39.7274 29.8182 39.99 30.1183C40.2525 30.4183 40.4 30.8253 40.4 31.2496C40.4 31.674 40.2525 32.081 39.99 32.381C39.7274 32.6811 39.3713 32.8496 39 32.8496ZM41.8 29.6496C41.4287 29.6496 41.0726 29.4811 40.81 29.181C40.5475 28.881 40.4 28.474 40.4 28.0497C40.4 27.6253 40.5475 27.2183 40.81 26.9183C41.0726 26.6182 41.4287 26.4497 41.8 26.4497C42.1713 26.4497 42.5274 26.6182 42.7899 26.9183C43.0525 27.2183 43.2 27.6253 43.2 28.0497C43.2 28.474 43.0525 28.881 42.7899 29.181C42.5274 29.4811 42.1713 29.6496 41.8 29.6496Z" fill="white"/>
</g>
</svg>
