<svg width="64" height="65" viewBox="0 0 64 65" fill="none" xmlns="http://www.w3.org/2000/svg">
<g id="Iconos/Intereses/Deporte">
<rect y="0.5" width="64" height="64" rx="8" fill="#5D8AAB"/>
<path id="Deporte" d="M19.5 32.5C19.5 29.1848 20.817 26.0054 23.1612 23.6612C25.5054 21.317 28.6848 20 32 20C35.3152 20 38.4946 21.317 40.8388 23.6612C43.183 26.0054 44.5 29.1848 44.5 32.5C44.5 35.8152 43.183 38.9946 40.8388 41.3388C38.4946 43.683 35.3152 45 32 45C28.6848 45 25.5054 43.683 23.1612 41.3388C20.817 38.9946 19.5 35.8152 19.5 32.5ZM27.4673 22.9423C26.0644 23.6095 24.8249 24.5765 23.8365 25.775L25.0808 29.8212L27.0154 30.4654L31.0385 27.4077V25.3231L27.4673 22.9423ZM21.4923 33.7192C21.6846 35.3827 22.2615 36.9308 23.1327 38.2673H26.7942L28.0154 37.0462L26.4327 32.2962L24.4635 31.6404L21.4923 33.7192ZM29.8577 42.8577C31.2711 43.1486 32.7289 43.1486 34.1423 42.8577L35.6615 39.4423L34.4865 38.2692H29.5135L28.3404 39.4423L29.8577 42.8596V42.8577ZM40.8654 38.2692C41.7115 36.9731 42.2808 35.4808 42.4885 33.875L39.5192 31.6481L37.5673 32.2981L35.9846 37.0481L37.2058 38.2692H40.8654ZM40.1385 25.7442C39.1542 24.559 37.9238 23.6023 36.5327 22.9404L32.9615 25.3231V27.4077L36.9846 30.4654L38.9154 29.8231L40.1385 25.7442Z" fill="white"/>
</g>
</svg>
