<svg width="64" height="65" viewBox="0 0 64 65" fill="none" xmlns="http://www.w3.org/2000/svg">
<g id="Iconos/Intereses/Ejercicio">
<rect y="0.5" width="64" height="64" rx="8" fill="#5D8AAB"/>
<g id="Ejercicio">
<path id="Vector" d="M25.0999 25H20.8999C20.6612 25 20.4323 25.0948 20.2635 25.2636C20.0947 25.4324 19.9999 25.6613 19.9999 25.9V39.1C19.9999 39.2182 20.0232 39.3352 20.0684 39.4444C20.1136 39.5536 20.1799 39.6528 20.2635 39.7364C20.3471 39.82 20.4463 39.8863 20.5555 39.9315C20.6647 39.9767 20.7817 40 20.8999 40H25.0999C25.2181 40 25.3351 39.9767 25.4443 39.9315C25.5535 39.8863 25.6527 39.82 25.7363 39.7364C25.8198 39.6528 25.8861 39.5536 25.9314 39.4444C25.9766 39.3352 25.9999 39.2182 25.9999 39.1V25.9C25.9999 25.6613 25.9051 25.4324 25.7363 25.2636C25.5675 25.0948 25.3386 25 25.0999 25ZM43.0999 25H38.8999C38.6612 25 38.4323 25.0948 38.2635 25.2636C38.0947 25.4324 37.9999 25.6613 37.9999 25.9V39.1C37.9999 39.2182 38.0232 39.3352 38.0684 39.4444C38.1136 39.5536 38.1799 39.6528 38.2635 39.7364C38.3471 39.82 38.4463 39.8863 38.5555 39.9315C38.6647 39.9767 38.7817 40 38.8999 40H43.0999C43.2181 40 43.3351 39.9767 43.4443 39.9315C43.5535 39.8863 43.6527 39.82 43.7363 39.7364C43.8198 39.6528 43.8861 39.5536 43.9314 39.4444C43.9766 39.3352 43.9999 39.2182 43.9999 39.1V25.9C43.9999 25.6613 43.9051 25.4324 43.7363 25.2636C43.5675 25.0948 43.3386 25 43.0999 25Z" stroke="white" stroke-width="1.5" stroke-linecap="round" stroke-linejoin="round"/>
<path id="Vector_2" d="M26 32.4996H38M15.5 36.0996V28.8996C15.5 28.6609 15.5948 28.432 15.7636 28.2632C15.9324 28.0944 16.1613 27.9996 16.4 27.9996H19.1C19.3387 27.9996 19.5676 28.0944 19.7364 28.2632C19.9052 28.432 20 28.6609 20 28.8996V36.0996C20 36.3383 19.9052 36.5672 19.7364 36.736C19.5676 36.9048 19.3387 36.9996 19.1 36.9996H16.4C16.1613 36.9996 15.9324 36.9048 15.7636 36.736C15.5948 36.5672 15.5 36.3383 15.5 36.0996ZM48.5 36.0996V28.8996C48.5 28.6609 48.4052 28.432 48.2364 28.2632C48.0676 28.0944 47.8387 27.9996 47.6 27.9996H44.9C44.6613 27.9996 44.4324 28.0944 44.2636 28.2632C44.0948 28.432 44 28.6609 44 28.8996V36.0996C44 36.3383 44.0948 36.5672 44.2636 36.736C44.4324 36.9048 44.6613 36.9996 44.9 36.9996H47.6C47.8387 36.9996 48.0676 36.9048 48.2364 36.736C48.4052 36.5672 48.5 36.3383 48.5 36.0996Z" stroke="white" stroke-width="1.5" stroke-linecap="round" stroke-linejoin="round"/>
</g>
</g>
</svg>
