<svg width="64" height="65" viewBox="0 0 64 65" fill="none" xmlns="http://www.w3.org/2000/svg">
<g id="Iconos/Intereses/Herramientas-desarrollo">
<rect y="0.5" width="64" height="64" rx="8" fill="#5D8AAB"/>
<path id="Herramientas-desarrollo" d="M19.3313 20.8683C18.5072 21.6919 18 22.8178 18 24.061V38.3956C18 39.6053 18.4909 40.7654 19.3648 41.6207C20.2386 42.4761 21.4238 42.9566 22.6596 42.9566H31.9973C32.0652 42.6282 32.189 42.305 32.3701 41.9975L33.3419 40.3503H22.6596C22.1299 40.3503 21.622 40.1444 21.2475 39.7778C20.873 39.4112 20.6626 38.914 20.6626 38.3956V26.0157H39.3009V27.6499C40.1525 27.3485 41.0627 27.2393 41.9635 27.3306V24.061C41.9635 22.8178 41.4562 21.6919 40.6322 20.8683V20.8031H40.5656C39.6954 19.9664 38.5238 19.4983 37.3039 19.5H22.6596C21.3895 19.5 20.2393 19.9965 19.3979 20.8031H19.3313V20.8683ZM40.9144 28.622C41.3411 28.5835 41.7712 28.6027 42.1925 28.6794L39.9945 32.4037C39.8848 32.5769 39.8118 32.7698 39.7798 32.971C39.7478 33.1723 39.7574 33.3778 39.8081 33.5754C39.8587 33.7729 39.9494 33.9585 40.0748 34.1211C40.2001 34.2837 40.3575 34.42 40.5377 34.5219C40.7179 34.6238 40.9172 34.6892 41.1237 34.7143C41.3302 34.7394 41.5397 34.7236 41.7399 34.6678C41.9401 34.6121 42.1267 34.5176 42.2889 34.3899C42.451 34.2622 42.5853 34.104 42.6837 33.9245L44.8817 30.1988C45.4838 30.8881 45.8623 31.7375 45.969 32.6384C46.0757 33.5393 45.9056 34.4508 45.4806 35.2567C45.0555 36.0625 44.3947 36.7261 43.5826 37.1626C42.7705 37.5992 41.8438 37.7889 40.9211 37.7075L36.8859 44.5491C36.6285 44.9857 36.2044 45.3045 35.7069 45.4351C35.2095 45.5657 34.6794 45.4975 34.2333 45.2456C33.7871 44.9936 33.4615 44.5785 33.3281 44.0916C33.1946 43.6046 33.2643 43.0858 33.5217 42.6491L37.5502 35.8206C37.0722 35.1675 36.7789 34.4025 36.6999 33.6029C36.621 32.8032 36.7592 31.9973 37.1006 31.2668C37.4421 30.5362 37.9746 29.9069 38.6442 29.4425C39.3139 28.9781 40.0971 28.695 40.9144 28.622ZM29.0525 28.9387C29.1412 29.0332 29.2101 29.1439 29.2551 29.2645C29.3002 29.3851 29.3205 29.5132 29.3149 29.6415C29.3093 29.7698 29.278 29.8957 29.2227 30.0122C29.1674 30.1286 29.0892 30.2332 28.9926 30.32L25.8014 33.183L28.9926 36.046C29.1878 36.2213 29.304 36.4652 29.3155 36.7243C29.3269 36.9833 29.2328 37.2362 29.0538 37.4274C28.8748 37.6185 28.6256 37.7322 28.3609 37.7434C28.0963 37.7547 27.8379 37.6625 27.6426 37.4873L23.6487 33.9037C23.5466 33.8121 23.4651 33.7008 23.4093 33.5767C23.3535 33.4526 23.3247 33.3186 23.3247 33.183C23.3247 33.0475 23.3535 32.9134 23.4093 32.7894C23.4651 32.6653 23.5466 32.554 23.6487 32.4624L27.6426 28.8787C27.7393 28.7919 27.8525 28.7246 27.9757 28.6807C28.099 28.6367 28.2299 28.6169 28.3609 28.6225C28.492 28.6281 28.6206 28.6589 28.7395 28.7131C28.8584 28.7674 28.9652 28.844 29.0538 28.9387H29.0525ZM32.9865 37.4873L35.6757 35.0739C35.2427 33.846 35.239 32.512 35.6651 31.2817L32.9865 28.8787C32.8898 28.792 32.7766 28.7247 32.6534 28.6808C32.5301 28.6368 32.3993 28.6171 32.2682 28.6226C32.1372 28.6282 32.0085 28.659 31.8896 28.7132C31.7708 28.7674 31.6639 28.844 31.5753 28.9387C31.4867 29.0333 31.4179 29.1441 31.373 29.2648C31.3282 29.3854 31.308 29.5135 31.3137 29.6418C31.3193 29.77 31.3508 29.896 31.4062 30.0123C31.4616 30.1287 31.5399 30.2333 31.6365 30.32L34.8277 33.183L31.6365 36.046C31.4413 36.2213 31.3251 36.4652 31.3137 36.7243C31.3022 36.9833 31.3963 37.2362 31.5753 37.4274C31.7543 37.6185 32.0036 37.7322 32.2682 37.7434C32.5329 37.7547 32.7912 37.6625 32.9865 37.4873Z" fill="white"/>
</g>
</svg>
