<svg width="64" height="65" viewBox="0 0 64 65" fill="none" xmlns="http://www.w3.org/2000/svg">
<g id="Iconos/Intereses/VSC">
<rect y="0.5" width="64" height="64" rx="8" fill="#5D8AAB"/>
<path id="VSC" d="M39.007 38.2008V26.7975L30.6153 32.4991M18.3355 29.058C18.1326 28.8631 18.0173 28.6075 18.0122 28.3407C18.007 28.0739 18.1123 27.8149 18.3076 27.6138L19.9859 26.2198C20.2656 25.9937 20.9509 25.8932 21.4544 26.2198L26.2377 29.4976L37.3286 20.3925C37.7762 19.9906 38.5454 19.8274 39.4265 20.2418L45.021 22.6405C45.5245 22.9043 46 23.3187 46 24.0848V41.0391C46 41.5414 45.5944 42.0814 45.1608 42.2949L39.007 44.9323C38.5594 45.0955 37.7202 44.9448 37.4265 44.6811L26.2097 35.5132L21.4544 38.7785C20.923 39.105 20.2656 39.0171 19.9859 38.7785L18.3076 37.397C17.86 36.9826 17.916 36.3044 18.3775 35.89L22.5733 32.4991" fill="white"/>
</g>
</svg>
