<svg width="355" height="271" viewBox="0 0 355 271" fill="none" xmlns="http://www.w3.org/2000/svg">
<g id="Frame 18">
<g id="SVG/elijaSuOpcion 1" clip-path="url(#clip0_64_1044)">
<path id="Vector" d="M82.2795 10H34.0931L10 52.4688L34.0931 94.9379H82.2795L106.373 52.4688L82.2795 10Z" fill="#E6E6E6"/>
<path id="Vector_2" d="M36.7975 90.1709H79.5751L100.964 52.4689L79.5751 14.767H36.7975L15.4086 52.4689L36.7975 90.1709Z" fill="white"/>
<path id="Vector_3" d="M36.2808 43.2303C37.3708 43.2303 38.2543 42.3311 38.2543 41.2219C38.2543 40.1127 37.3708 39.2135 36.2808 39.2135C35.1909 39.2135 34.3074 40.1127 34.3074 41.2219C34.3074 42.3311 35.1909 43.2303 36.2808 43.2303Z" fill="#C1C7C7"/>
<path id="Vector_4" d="M36.2808 54.4772C37.3708 54.4772 38.2543 53.578 38.2543 52.4688C38.2543 51.3596 37.3708 50.4604 36.2808 50.4604C35.1909 50.4604 34.3074 51.3596 34.3074 52.4688C34.3074 53.578 35.1909 54.4772 36.2808 54.4772Z" fill="#C1C7C7"/>
<path id="Vector_5" d="M36.2808 65.7242C37.3708 65.7242 38.2543 64.825 38.2543 63.7158C38.2543 62.6066 37.3708 61.7074 36.2808 61.7074C35.1909 61.7074 34.3074 62.6066 34.3074 63.7158C34.3074 64.825 35.1909 65.7242 36.2808 65.7242Z" fill="#C1C7C7"/>
<path id="Vector_6" d="M82.0653 39.6152H44.5694V42.8286H82.0653V39.6152Z" fill="#C1C7C7"/>
<path id="Vector_7" d="M82.0653 50.8622H44.5694V54.0756H82.0653V50.8622Z" fill="#C1C7C7"/>
<path id="Vector_8" d="M82.0653 62.1091H44.5694V65.3225H82.0653V62.1091Z" fill="#C1C7C7"/>
<path id="Vector_9" d="M320.907 10H272.72L248.627 52.4688L272.72 94.9379H320.907L345 52.4688L320.907 10Z" fill="#C1C7C7"/>
<path id="Vector_10" d="M275.425 90.1709H318.202L339.591 52.4689L318.202 14.767H275.425L254.036 52.4689L275.425 90.1709Z" fill="white"/>
<path id="Vector_11" d="M274.908 43.2303C275.998 43.2303 276.882 42.3311 276.882 41.2219C276.882 40.1127 275.998 39.2135 274.908 39.2135C273.818 39.2135 272.935 40.1127 272.935 41.2219C272.935 42.3311 273.818 43.2303 274.908 43.2303Z" fill="#C1C7C7"/>
<path id="Vector_12" d="M274.908 54.4772C275.998 54.4772 276.882 53.578 276.882 52.4688C276.882 51.3596 275.998 50.4604 274.908 50.4604C273.818 50.4604 272.935 51.3596 272.935 52.4688C272.935 53.578 273.818 54.4772 274.908 54.4772Z" fill="#C1C7C7"/>
<path id="Vector_13" d="M274.908 65.7242C275.998 65.7242 276.882 64.825 276.882 63.7158C276.882 62.6066 275.998 61.7074 274.908 61.7074C273.818 61.7074 272.935 62.6066 272.935 63.7158C272.935 64.825 273.818 65.7242 274.908 65.7242Z" fill="#C1C7C7"/>
<path id="Vector_14" d="M320.693 39.6152H283.197V42.8286H320.693V39.6152Z" fill="#C1C7C7"/>
<path id="Vector_15" d="M320.693 50.8622H283.197V54.0756H320.693V50.8622Z" fill="#C1C7C7"/>
<path id="Vector_16" d="M320.693 62.1091H283.197V65.3225H320.693V62.1091Z" fill="#C1C7C7"/>
<path id="Vector_17" d="M201.359 10.4125H153.64L129.781 52.4688L153.64 94.5255H201.359L225.219 52.4688L201.359 10.4125Z" fill="#C1C7C7"/>
<path id="Vector_18" d="M156.319 89.8047H198.681L219.862 52.4689L198.681 15.1331H156.319L135.138 52.4689L156.319 89.8047Z" fill="white"/>
<path id="Vector_19" d="M155.807 43.32C156.887 43.32 157.762 42.4296 157.762 41.3312C157.762 40.2327 156.887 39.3423 155.807 39.3423C154.728 39.3423 153.853 40.2327 153.853 41.3312C153.853 42.4296 154.728 43.32 155.807 43.32Z" fill="#377A60"/>
<path id="Vector_20" d="M155.807 54.4577C156.887 54.4577 157.762 53.5673 157.762 52.4689C157.762 51.3704 156.887 50.48 155.807 50.48C154.728 50.48 153.853 51.3704 153.853 52.4689C153.853 53.5673 154.728 54.4577 155.807 54.4577Z" fill="#377A60"/>
<path id="Vector_21" d="M155.807 65.5954C156.887 65.5954 157.762 64.705 157.762 63.6066C157.762 62.5081 156.887 61.6177 155.807 61.6177C154.728 61.6177 153.853 62.5081 153.853 63.6066C153.853 64.705 154.728 65.5954 155.807 65.5954Z" fill="#377A60"/>
<path id="Vector_22" d="M201.147 39.7401H164.015V42.9223H201.147V39.7401Z" fill="#377A60"/>
<path id="Vector_23" d="M201.147 50.8778H164.015V54.06H201.147V50.8778Z" fill="#377A60"/>
<path id="Vector_24" d="M201.147 62.0155H164.015V65.1977H201.147V62.0155Z" fill="#377A60"/>
<path id="Vector_25" d="M218.182 256.135L213.547 256.134L211.342 237.941L218.182 237.941L218.182 256.135Z" fill="#FBBEBE"/>
<path id="Vector_26" d="M219.363 260.707L204.419 260.706V260.514C204.419 258.944 205.032 257.438 206.123 256.328C207.213 255.218 208.693 254.594 210.236 254.594L219.364 254.595L219.363 260.707Z" fill="#2F2E41"/>
<path id="Vector_27" d="M261.28 256.135L256.645 256.134L254.44 237.941L261.281 237.941L261.28 256.135Z" fill="#E2ABAB"/>
<path id="Vector_28" d="M262.462 260.707L247.517 260.706V260.514C247.517 258.944 248.13 257.438 249.221 256.328C250.312 255.218 251.791 254.594 253.334 254.594L262.462 254.595L262.462 260.707Z" fill="#2F2E41"/>
<path id="Vector_29" d="M216.334 163.806C216.334 163.806 212.444 174.552 213 179.077C213.555 183.602 209.109 215.276 209.665 218.104C210.221 220.932 209.109 235.072 209.665 237.334C210.221 239.597 208.105 242.299 209.217 244.561C210.328 246.824 211.888 251.474 211.888 251.474L219.113 250.909L220.225 244.687C220.225 244.687 223.559 244.122 223.003 240.728C222.448 237.334 225.782 214.71 225.782 214.71L235.23 183.036L248.569 211.882C248.569 211.882 249.125 232.244 250.792 234.506C252.459 236.769 249.125 242.99 250.792 245.253C252.459 247.515 254.127 251.474 254.127 251.474H262.463V246.95C262.463 246.95 267.465 244.122 262.463 235.637L259.083 184.687L255.749 161.497L216.334 163.806Z" fill="#2F2E41"/>
<path id="Vector_30" d="M237.052 92.6865C242.785 92.6865 247.433 87.9568 247.433 82.1224C247.433 76.2881 242.785 71.5583 237.052 71.5583C231.319 71.5583 226.672 76.2881 226.672 82.1224C226.672 87.9568 231.319 92.6865 237.052 92.6865Z" fill="#E2ABAB"/>
<path id="Vector_31" d="M228.219 81.3937C228.951 83.2983 229.684 85.2028 230.416 87.1073C231.317 89.4487 232.348 91.9537 234.459 93.2603C237.065 94.8736 240.545 94.087 243.066 92.3394C245.334 90.7675 247.074 88.5272 248.054 85.9193C249.034 83.3114 249.206 80.4608 248.547 77.7504C247.888 75.04 246.431 72.5997 244.369 70.7571C242.308 68.9146 239.742 67.7581 237.016 67.443L236.912 69.3553L234.606 67.3883C234.436 67.6861 234.201 67.9407 233.92 68.133C233.639 68.3253 233.318 68.4502 232.983 68.4985C232.648 68.5468 232.306 68.5171 231.984 68.4117C231.661 68.3062 231.366 68.1278 231.121 67.8898C231.727 69.1676 231.028 70.726 230.018 71.7048C228.778 72.9073 225.231 74.3524 225.378 76.502C225.476 77.9365 227.647 79.9071 228.219 81.3937Z" fill="#725D54"/>
<path id="Vector_32" d="M265.626 179.433C265.984 178.89 266.22 178.273 266.318 177.627C266.417 176.981 266.375 176.32 266.195 175.692C266.016 175.065 265.703 174.484 265.279 173.993C264.855 173.501 264.331 173.11 263.743 172.847L263.95 162.627L257.878 160.984L257.785 175.421C257.416 176.456 257.433 177.593 257.833 178.616C258.233 179.639 258.988 180.477 259.954 180.971C260.921 181.466 262.032 181.582 263.077 181.299C264.123 181.015 265.03 180.351 265.626 179.433Z" fill="#E2ABAB"/>
<path id="Vector_33" d="M244.763 99.2156C244.763 99.2156 236.719 95.1225 229.122 97.8512C221.525 100.58 217.503 103.764 217.503 103.764L222.419 130.142L215.716 165.616C215.716 165.616 250.126 162.887 253.254 165.616C256.382 168.345 256.382 162.432 256.382 162.432L253.701 128.777L258.617 107.402L244.763 99.2156Z" fill="#5D8AAB"/>
<path id="Vector_34" d="M210.812 180.038C211.306 179.619 211.703 179.095 211.975 178.502C212.248 177.91 212.39 177.265 212.39 176.611C212.391 175.957 212.251 175.31 211.98 174.718C211.709 174.125 211.314 173.599 210.822 173.179L213.84 163.43L208.466 160.118L204.393 173.947C203.754 174.835 203.457 175.931 203.558 177.027C203.66 178.123 204.153 179.143 204.944 179.894C205.736 180.645 206.77 181.074 207.852 181.101C208.933 181.127 209.987 180.749 210.812 180.038Z" fill="#FBBEBE"/>
<path id="Vector_35" d="M220.631 103.764H217.503C217.503 103.764 212.587 106.947 212.587 111.495C212.587 116.043 205.437 169.254 205.437 169.254L213.034 170.619L219.738 133.325L224.653 123.32L220.631 103.764Z" fill="#5D8AAB"/>
<path id="Vector_36" d="M250.126 107.402H258.617C258.617 107.402 261.298 110.131 262.639 116.498C263.98 122.865 265.32 147.879 265.32 147.879L264.426 170.619H257.723L256.829 141.057L252.36 121.955L250.126 107.402Z" fill="#5D8AAB"/>
<path id="Vector_37" d="M314.274 261H170.235C170.135 261 170.039 260.959 169.968 260.887C169.897 260.815 169.857 260.717 169.857 260.615C169.857 260.513 169.897 260.415 169.968 260.343C170.039 260.271 170.135 260.23 170.235 260.23H314.274C314.374 260.23 314.47 260.271 314.541 260.343C314.612 260.415 314.652 260.513 314.652 260.615C314.652 260.717 314.612 260.815 314.541 260.887C314.47 260.959 314.374 261 314.274 261Z" fill="#CBCBCB"/>
</g>
</g>
<defs>
<clipPath id="clip0_64_1044">
<rect width="335" height="251" fill="white" transform="translate(10 10)"/>
</clipPath>
</defs>
</svg>
