<svg width="378" height="246" viewBox="0 0 378 246" fill="none" xmlns="http://www.w3.org/2000/svg">
<g id="SVG/fitness_stats 1" clip-path="url(#clip0_64_745)">
<path id="Vector" d="M289.597 233.009L309.277 203.661L289.637 236.166L289.678 239.469C288.242 239.48 286.819 239.456 285.41 239.397L286.386 196.947L286.36 196.62L286.396 196.556L286.489 192.545L264.938 161.167L286.464 189.543L286.54 190.391L287.277 158.319L268.663 125.787L287.33 152.684L287.135 86.2391L287.136 86.0179L287.142 86.2354L288.378 138.603L305.343 117.332L288.433 143.115L288.804 171.803L304.415 143.804L288.861 176.02L289.067 191.972L311.77 152.971L289.136 197.537L289.597 233.009Z" fill="#E6E6E6"/>
<path id="Vector_2" d="M355.827 233.933L375.507 204.586L355.867 237.091L355.908 240.393C354.472 240.404 353.049 240.38 351.64 240.321L352.616 197.872L352.589 197.544L352.625 197.481L352.719 193.47L331.167 162.092L352.693 190.467L352.77 191.315L353.507 159.243L334.892 126.711L353.56 153.609L353.365 87.1635L353.366 86.9424L353.372 87.1599L354.608 139.528L371.573 118.256L354.663 144.039L355.033 172.727L370.645 144.729L355.091 176.945L355.297 192.897L378 153.895L355.366 198.461L355.827 233.933Z" fill="#E6E6E6"/>
<path id="Vector_3" d="M376.158 239.582H163.51V240.431H376.158V239.582Z" fill="#3F3D56"/>
<path id="Vector_4" d="M214.337 115.079C214.337 115.079 211.674 95.4988 207.237 100.839C202.799 106.179 207.237 114.189 207.237 114.189L210.787 118.639L214.337 115.969V115.079Z" fill="#FBBEBE"/>
<path id="Vector_5" d="M224.987 121.309C224.987 121.309 216.112 111.519 214.337 113.299C212.562 115.079 207.237 115.969 208.124 119.529C209.012 123.089 227.65 134.659 227.65 134.659L224.987 121.309Z" fill="#377A60"/>
<path id="Vector_6" opacity="0.1" d="M224.987 121.309C224.987 121.309 216.112 111.519 214.337 113.299C212.562 115.079 207.237 115.969 208.124 119.529C209.012 123.089 227.65 134.659 227.65 134.659L224.987 121.309Z" fill="black"/>
<path id="Vector_7" d="M275.575 120.419V127.539C275.575 127.539 276.463 143.559 271.138 142.669C265.812 141.779 268.475 128.429 268.475 128.429L269.363 120.419L275.575 120.419Z" fill="#E2ABAB"/>
<path id="Vector_8" d="M272.913 172.039C272.913 172.039 280.9 184.499 283.563 185.389C286.225 186.279 300.425 194.289 302.2 202.299L314.626 218.319L308.413 226.329C308.413 226.329 280.013 196.069 272.025 193.399C264.037 190.729 256.05 177.379 256.05 177.379L272.913 172.039Z" fill="#E2ABAB"/>
<path id="Vector_9" d="M209.899 151.569C209.899 151.569 193.037 154.239 195.699 164.919C198.362 175.599 224.099 197.849 224.099 197.849L224.987 203.189L234.75 204.969L239.187 200.519L238.3 197.849C238.3 197.849 227.65 188.059 226.762 184.499C225.875 180.939 216.112 166.699 211.674 165.809L217.887 162.249L209.899 151.569Z" fill="#FBBEBE"/>
<path id="Vector_10" d="M311.963 218.319C311.963 218.319 308.413 212.979 313.738 213.869C319.063 214.759 322.613 215.649 322.613 219.209C322.613 222.769 318.176 247.689 312.851 245.909C307.525 244.129 311.963 236.119 311.963 236.119C311.963 236.119 309.301 228.999 307.526 228.109C305.75 227.219 305.75 222.769 307.526 222.769C309.301 222.769 312.851 220.099 311.963 218.319Z" fill="#2F2E41"/>
<path id="Vector_11" d="M236.525 198.739C236.525 198.739 236.525 194.289 240.075 198.739C243.625 203.189 245.4 206.749 241.85 209.419C238.3 212.089 225.875 218.319 225.875 218.319C225.875 218.319 212.562 220.989 214.337 214.759C214.337 214.759 223.212 210.309 223.212 206.749C223.212 203.189 223.212 196.959 225.875 198.739C228.537 200.519 236.525 201.409 236.525 198.739Z" fill="#2F2E41"/>
<path id="Vector_12" d="M253.387 131.989C253.387 131.989 265.812 133.769 264.925 151.569C264.925 151.569 280.9 167.589 276.463 172.929C272.025 178.269 262.262 188.059 258.712 185.389C255.162 182.719 244.512 162.249 244.512 162.249C244.512 162.249 219.662 171.149 215.224 166.699C210.787 162.249 206.349 151.569 206.349 151.569L228.537 139.999L253.387 131.989Z" fill="#5D8AAB"/>
<path id="Vector_13" d="M226.762 71.4686C226.762 71.4686 232.975 81.2587 234.75 82.1487C236.525 83.0387 222.324 91.9387 222.324 91.9387C222.324 91.9387 222.324 80.3686 217.887 77.6986L226.762 71.4686Z" fill="#E2ABAB"/>
<path id="Vector_14" d="M227.65 81.2587C227.65 81.2587 241.85 76.8087 244.512 83.9287C247.175 91.0487 253.387 104.399 252.5 113.299C251.612 122.199 249.837 120.419 252.5 123.089C255.162 125.759 256.937 123.979 256.05 127.539C255.162 131.099 254.275 131.099 255.162 132.879C256.05 134.659 244.512 140.889 234.75 141.779L224.987 142.669C224.987 142.669 224.987 126.649 223.212 123.089C221.437 119.529 217.887 112.409 217.887 109.739V102.674C217.887 97.9721 219.111 93.3513 221.437 89.2687C221.437 89.2687 226.762 81.2587 227.65 81.2587Z" fill="#377A60"/>
<path id="Vector_15" d="M238.3 84.8187C238.3 84.8187 271.138 87.4887 274.688 96.3888C278.238 105.289 280.013 123.089 276.463 123.089C272.913 123.089 268.475 124.869 267.588 123.089C266.7 121.309 263.15 103.509 262.262 103.509C261.375 103.509 234.75 100.839 234.75 100.839C234.75 100.839 223.212 86.5987 238.3 84.8187Z" fill="#377A60"/>
<path id="Vector_16" d="M218.774 81.2586C224.656 81.2586 229.425 76.477 229.425 70.5786C229.425 64.6802 224.656 59.8986 218.774 59.8986C212.893 59.8986 208.124 64.6802 208.124 70.5786C208.124 76.477 212.893 81.2586 218.774 81.2586Z" fill="#FBBEBE"/>
<path id="Vector_17" d="M218.347 67.9309C218.347 67.9309 215.52 63.0056 211.988 67.2836C208.455 71.5617 202.708 63.7 203.59 62.0225C204.472 60.345 207.588 62.0979 212.927 60.3476C218.266 58.5973 228.551 55.0316 230.274 66.6631C231.996 78.2946 227.894 77.0752 227.894 77.0752C227.894 77.0752 226.014 66.7684 224.314 69.729L222.615 72.6895L221.14 73.0534L218.347 67.9309Z" fill="#725D54"/>
</g>
<defs>
<clipPath id="clip0_64_745">
<rect width="378" height="246" fill="white"/>
</clipPath>
</defs>
</svg>
