<svg width="346" height="189" viewBox="0 0 346 189" fill="none" xmlns="http://www.w3.org/2000/svg">
<g id="SVG/Gamer" clip-path="url(#clip0_63_523)">
<path id="Vector" d="M118.93 117.874C119.285 117.164 119.877 116.603 120.368 115.975C120.297 116.034 120.223 116.089 120.146 116.14C119.782 116.294 119.445 116.505 119.149 116.765C118.967 117.015 118.845 117.303 118.79 117.607L117.943 120.88C118.109 120.672 118.275 120.467 118.444 120.263C118.434 119.441 118.599 118.627 118.93 117.874Z" fill="#F2F2F2"/>
<path id="Vector_2" d="M152.326 117.884C152.321 117.453 152.233 117.027 152.067 116.629C151.895 116.305 151.678 116.007 151.422 115.744L150.705 114.931C150.339 123.559 149.562 132.21 151.176 140.659C151.439 142.027 151.788 143.434 152.672 144.514C152.908 144.742 153.083 145.026 153.18 145.34C154.509 140.187 153.762 134.605 152.977 129.273C152.901 128.695 152.785 128.122 152.628 127.559C152.038 125.398 151.9 123.139 152.223 120.923C152.357 119.916 152.392 118.898 152.326 117.884Z" fill="#F2F2F2"/>
<path id="Vector_3" d="M156.44 99.6743C157.4 101.247 157.998 103.11 158.536 104.89L158.766 105.66C158.656 103.05 158.603 100.437 158.583 97.8246C158.064 98.2826 157.543 98.7351 157.018 99.1822L156.44 99.6743Z" fill="#F2F2F2"/>
<path id="Vector_4" d="M159.134 82.8616C159.49 82.1514 160.081 81.5899 160.573 80.9623C160.502 81.021 160.427 81.0761 160.35 81.1274C159.987 81.2809 159.65 81.4917 159.354 81.7517C159.172 82.0022 159.049 82.2901 158.995 82.594L158.148 85.8674C158.314 85.6593 158.48 85.4545 158.649 85.2497C158.639 84.4284 158.804 83.6143 159.134 82.8616Z" fill="#F2F2F2"/>
<path id="Vector_5" d="M178.041 147.8L176.904 187.586L179.895 187.553C179.368 182.711 179.128 177.843 179.177 172.973C179.177 171.556 179.227 170.123 178.931 168.739C178.722 167.771 178.356 166.843 178.157 165.872C177.961 164.71 177.887 163.531 177.934 162.354L178.041 147.8Z" fill="#F2F2F2"/>
<path id="Vector_6" d="M152.343 147.824C152.389 147.711 152.436 147.606 152.479 147.493C152.635 147.09 152.775 146.684 152.904 146.274L152.878 146.321C152.615 146.75 152.329 147.163 152.034 147.569C152.14 147.649 152.243 147.734 152.343 147.824Z" fill="#F2F2F2"/>
<path id="Vector_7" d="M61.9651 133.29C62.0117 133.178 62.0582 133.072 62.1014 132.96C62.2575 132.557 62.3971 132.15 62.5267 131.741L62.5001 131.787C62.2376 132.216 61.9518 132.629 61.6561 133.036C61.7625 133.115 61.8655 133.201 61.9651 133.29Z" fill="#F2F2F2"/>
<path id="Vector_8" d="M47.4582 168.28C47.2633 175.183 47.0661 182.087 46.8668 188.99L48.2922 188.974C48.0795 188.095 47.7639 187.239 47.5811 186.351C47.3856 185.189 47.311 184.01 47.3585 182.833L47.4582 168.28Z" fill="#F2F2F2"/>
<path id="Vector_9" d="M68.8066 188.23C68.3798 188.034 68.0113 187.731 67.7367 187.352C67.5221 186.98 67.3832 186.571 67.328 186.146C67.1192 185.082 66.9651 184.008 66.8661 182.929C66.835 182.609 66.8273 182.288 66.8429 181.968C66.567 182.09 66.3221 182.272 66.1261 182.501C65.9301 182.73 65.7879 182.999 65.7098 183.289C64.7384 181.58 64.1045 179.702 63.8424 177.756C63.7428 178.087 63.6398 178.45 63.5102 178.797C62.8191 180.841 61.8156 182.82 61.6162 184.967C61.5204 186.261 61.6326 187.562 61.9485 188.822L68.5474 188.752L68.8066 188.23Z" fill="#F2F2F2"/>
<path id="Vector_10" d="M73.1461 177.323C73.2756 177.733 73.4152 178.139 73.5714 178.542C73.6146 178.655 73.6611 178.76 73.7076 178.873C73.8073 178.783 73.9103 178.698 74.0166 178.618C73.7209 178.212 73.4351 177.799 73.1726 177.37L73.1461 177.323Z" fill="#F2F2F2"/>
<path id="Vector_11" d="M120.75 184.194C120.284 182.226 119.966 180.227 119.797 178.212C119.27 173.368 118.742 168.523 118.215 163.678C118.199 163.55 118.185 163.424 118.172 163.295C118.152 163.358 118.136 163.421 118.116 163.484C117.714 164.656 116.916 165.647 116.122 166.612C115.328 167.576 114.334 168.57 113.168 168.29C112.69 168.133 112.256 167.866 111.902 167.51L109.244 165.228C108.719 164.787 108.197 164.335 107.679 163.87C107.656 167.058 107.583 170.245 107.416 173.426C107.363 174.417 107.28 175.484 106.802 176.366C107.783 179.394 108.326 182.546 108.417 185.727C108.44 186.589 108.417 187.448 108.39 188.31L116.178 188.227H116.225L122.083 188.164C121.594 186.863 121.103 185.552 120.75 184.194Z" fill="#F2F2F2"/>
<path id="Vector_12" d="M107.593 151.312C107.759 151.516 107.925 151.721 108.094 151.929L107.247 148.669C107.192 148.365 107.07 148.077 106.888 147.827C106.592 147.567 106.255 147.356 105.891 147.203C105.814 147.151 105.74 147.096 105.669 147.037C106.16 147.665 106.752 148.227 107.107 148.937C107.436 149.685 107.601 150.495 107.593 151.312Z" fill="#F2F2F2"/>
<path id="Vector_13" d="M117.225 136.801C117.434 139.093 117.557 141.396 117.674 143.698C117.79 146 117.91 148.243 118.026 150.516C118.297 148.758 118.708 147.025 119.255 145.333C118.777 144.451 118.694 143.401 118.641 142.393C118.474 139.212 118.401 136.025 118.378 132.837C117.87 133.29 117.355 133.733 116.836 134.159C117.03 135.029 117.16 135.912 117.225 136.801Z" fill="#F2F2F2"/>
<path id="Vector_14" d="M73.0829 160.336C72.2987 165.667 71.5412 171.236 72.8802 176.402C72.9774 176.089 73.1522 175.805 73.3886 175.576C74.2724 174.496 74.6213 173.089 74.8838 171.721C76.4986 163.272 75.7211 154.621 75.3556 145.994L74.6479 146.806C74.3863 147.064 74.1626 147.358 73.9833 147.678C73.8154 148.072 73.724 148.493 73.7142 148.92C73.6489 149.932 73.6834 150.947 73.8172 151.952C74.1459 154.174 74.0113 156.44 73.4218 158.608C73.2685 159.175 73.1553 159.753 73.0829 160.336Z" fill="#F2F2F2"/>
<path id="Vector_15" d="M193.235 187.411L195.84 187.381C194.451 179.431 196.455 170.892 194.568 162.939C194.272 161.7 193.903 160.402 193.81 159.143C193.146 160.901 192.385 162.631 192.212 164.488C191.91 167.705 193.431 170.783 193.996 173.961C194.774 178.344 193.72 182.813 193.252 187.239C193.245 187.315 193.242 187.355 193.235 187.411Z" fill="#F2F2F2"/>
<path id="Vector_16" d="M278.147 95.0731L278.174 94.9806L278.293 94.5942C278.008 94.3599 277.693 94.1634 277.356 94.0095C277.279 93.9582 277.205 93.9031 277.134 93.8444C277.463 94.2606 277.831 94.6503 278.147 95.0731Z" fill="#F2F2F2"/>
<path id="Vector_17" d="M244.598 124.144C244.727 124.553 244.867 124.96 245.023 125.363C245.066 125.475 245.113 125.581 245.159 125.693C245.259 125.604 245.362 125.518 245.468 125.438C245.172 125.032 244.887 124.619 244.624 124.19L244.598 124.144Z" fill="#F2F2F2"/>
<path id="Vector_18" d="M137.803 188.009C137.803 186.278 137.814 184.546 137.836 182.813C137.785 184.549 137.736 186.282 137.69 188.012L137.803 188.009Z" fill="#F2F2F2"/>
<path id="Vector_19" d="M28.4257 103.086L27.5784 106.36C27.7446 106.152 27.9107 105.947 28.0802 105.742C28.0653 104.922 28.2261 104.108 28.552 103.354C28.9075 102.644 29.499 102.082 29.9907 101.455C29.9193 101.513 29.845 101.569 29.7681 101.62C29.4042 101.773 29.0677 101.984 28.7713 102.244C28.5944 102.496 28.4764 102.784 28.4257 103.086Z" fill="#F2F2F2"/>
<path id="Vector_20" d="M284.367 137.914C284.467 137.825 284.57 137.739 284.676 137.66C284.38 137.254 284.095 136.841 283.832 136.411L283.806 136.365C283.935 136.775 284.075 137.181 284.231 137.584C284.274 137.696 284.311 137.802 284.367 137.914Z" fill="#F2F2F2"/>
<path id="Vector_21" d="M197.747 143.962C197.877 144.372 198.017 144.778 198.173 145.181C198.216 145.293 198.263 145.399 198.309 145.511C198.409 145.422 198.512 145.336 198.618 145.257C198.322 144.851 198.037 144.438 197.774 144.009L197.747 143.962Z" fill="#F2F2F2"/>
<path id="Vector_22" d="M212.816 180.501C212.829 182.734 212.844 184.967 212.859 187.2H213.005L212.816 180.501Z" fill="#F2F2F2"/>
<path id="Vector_23" d="M298.874 172.904C298.896 176.278 298.918 179.648 298.941 183.015L299.16 182.886C299.062 179.559 298.967 176.231 298.874 172.904Z" fill="#F2F2F2"/>
<path id="Vector_24" d="M290.82 68.4766L290.258 68.5889C290.572 68.9582 290.921 69.2957 291.302 69.5963C291.1 69.2418 290.939 68.8663 290.82 68.4766Z" fill="#F2F2F2"/>
<path id="Vector_25" d="M318.252 110.353C318.418 110.558 318.584 110.763 318.754 110.971L317.907 107.698C317.852 107.394 317.729 107.106 317.548 106.855C317.251 106.595 316.915 106.384 316.551 106.231C316.474 106.18 316.4 106.125 316.328 106.066C316.82 106.693 317.411 107.255 317.767 107.965C318.097 108.718 318.263 109.532 318.252 110.353Z" fill="#F2F2F2"/>
<path id="Vector_26" d="M219.518 181.082V189.01H48.3986V181.082C48.3986 180.469 48.6436 179.881 49.0798 179.447C49.516 179.014 50.1076 178.77 50.7245 178.77H217.192C217.809 178.77 218.4 179.014 218.837 179.447C219.273 179.881 219.518 180.469 219.518 181.082Z" fill="#3F3D56"/>
<path id="Vector_27" d="M154.649 63.2609C155.918 64.559 157.137 66.0587 157.377 67.8522C154.672 68.5558 151.904 67.2346 149.376 66.0554C141.551 62.3973 133.288 59.7477 124.788 58.1709C124.123 58.0486 123.412 57.9132 122.91 57.4574C121.963 56.5953 122.136 54.4218 123.017 53.5267C123.967 52.5622 125.725 52.7009 127.004 52.6316C132.106 52.3746 137.206 53.1882 141.971 55.0195C146.736 56.8509 151.06 59.6589 154.662 63.2609H154.649Z" fill="#192534"/>
<path id="Vector_28" d="M210.992 188.997H143.026C142.119 186.939 141.405 184.803 140.893 182.615C140.72 181.935 140.56 181.248 140.401 180.564C140.261 179.963 140.128 179.358 140.002 178.757C139.617 176.949 139.285 175.134 139.005 173.31C138.737 171.593 138.516 169.87 138.341 168.141C138.168 166.487 138.034 164.828 137.939 163.163C137.939 163.117 137.939 163.071 137.939 163.021C137.899 162.232 137.939 161.37 138.484 160.811C138.962 160.332 139.693 160.227 140.374 160.18C146.023 159.797 151.512 161.832 157.147 161.531C158.676 161.442 159.905 161.201 161.327 161.492C161.552 161.534 161.774 161.59 161.992 161.66C162.324 161.763 162.633 161.872 162.949 161.991C165.112 162.76 167.129 163.731 169.455 164.164C173.415 164.907 177.479 164.762 181.499 165.049C181.832 165.069 182.164 165.095 182.496 165.128C182.905 165.162 183.314 165.204 183.719 165.254C187.164 165.708 190.546 166.55 193.8 167.764C195.555 168.395 197.282 169.109 198.987 169.865C199.475 170.083 199.96 170.301 200.446 170.526C201.309 170.925 202.187 171.348 203.044 171.807C203.376 171.982 203.708 172.161 204.021 172.349C206.603 173.839 208.935 175.689 210.294 178.199C210.397 178.384 210.49 178.572 210.58 178.764C210.67 178.955 210.736 179.117 210.809 179.299C211.995 182.361 211.58 185.664 210.992 188.997Z" fill="#202F42"/>
<path id="Vector_29" opacity="0.1" d="M210.992 188.997H143.026C142.119 186.939 141.405 184.803 140.893 182.615C140.72 181.935 140.56 181.248 140.401 180.564C140.261 179.963 140.128 179.358 140.002 178.757C139.617 176.949 139.285 175.134 139.005 173.31C138.737 171.593 138.516 169.87 138.341 168.141C138.168 166.487 138.034 164.828 137.939 163.163C137.939 163.117 137.939 163.071 137.939 163.021C137.899 162.232 137.939 161.37 138.484 160.811C138.962 160.332 139.693 160.227 140.374 160.18C146.023 159.797 151.512 161.832 157.147 161.531C158.676 161.442 159.905 161.201 161.327 161.492C161.552 161.534 161.774 161.59 161.992 161.66C162.324 161.763 162.633 161.872 162.949 161.991C165.112 162.76 167.129 163.731 169.455 164.164C173.415 164.907 177.479 164.762 181.499 165.049C181.832 165.069 182.164 165.095 182.496 165.128C182.905 165.162 183.314 165.204 183.719 165.254C187.164 165.708 190.546 166.55 193.8 167.764C195.555 168.395 197.282 169.109 198.987 169.865C199.475 170.083 199.96 170.301 200.446 170.526C201.309 170.925 202.187 171.348 203.044 171.807C203.376 171.982 203.708 172.161 204.021 172.349C206.603 173.839 208.935 175.689 210.294 178.199C210.397 178.384 210.49 178.572 210.58 178.764C210.67 178.955 210.736 179.117 210.809 179.299C211.995 182.361 211.58 185.664 210.992 188.997Z" fill="black"/>
<path id="Vector_30" d="M148.96 188.997H72.3552C70.6341 187.114 69.5077 184.66 69.7868 182.159C69.887 181.12 70.0624 180.089 70.3118 179.074C70.3384 178.965 70.3683 178.86 70.3982 178.744C70.8892 176.824 72.1084 175.166 73.8006 174.12C76.8176 172.194 80.446 171.441 83.7687 170.192C85.553 169.532 87.2742 168.696 89.0585 168.032C91.6248 167.112 94.2741 166.44 96.9698 166.024C97.2689 165.974 97.5713 165.925 97.8703 165.882C98.1693 165.839 98.485 165.786 98.794 165.743C100.455 165.505 102.117 165.31 103.795 165.119C107.45 164.693 111.161 164.27 114.839 164.593C117.778 164.897 120.671 165.542 123.458 166.516C125.558 167.213 127.632 168.022 129.692 168.828C132.905 170.09 136.145 171.381 139.012 173.274C139.261 173.439 139.504 173.604 139.746 173.779C141.655 175.157 143.328 176.83 144.704 178.734C145.502 179.826 146.203 180.984 146.8 182.196C147.857 184.343 148.585 186.635 148.96 188.997Z" fill="#202F42"/>
<path id="Vector_31" d="M127.117 55.829C125.861 58.5672 123.731 61.0479 120.877 62.0553C119.358 62.5904 117.72 62.6862 116.172 63.1255C114.623 63.5648 113.062 64.4732 112.517 65.9761C112.317 66.6345 112.22 67.3198 112.231 68.0075C111.995 74.4651 111.802 81.1769 114.397 87.1027C116.64 92.2159 120.75 96.2556 124.811 100.107C129.562 104.612 134.593 109.181 140.843 111.196C144.498 112.368 148.801 112.497 151.824 110.162C153.067 109.2 153.991 107.902 154.898 106.621C156.892 103.797 158.918 100.933 160.174 97.7024C162.749 91.0962 161.882 83.7369 160.975 76.7178C160.97 76.3009 160.811 75.9004 160.53 75.5914C160.178 75.2974 159.663 75.3371 159.201 75.3635C155.968 75.5551 152.439 73.9068 151.356 70.8746C150.891 69.5534 150.904 68.1396 150.927 66.7523L151.054 58.7522C151.054 57.8901 151.077 56.9983 150.751 56.1956C150.183 54.8017 148.758 53.9858 147.392 53.312C142.989 51.1223 138.398 49.325 133.676 47.9412C131.609 47.3367 130.037 46.3293 129.117 48.5357C128.143 50.8314 128.187 53.4937 127.117 55.829Z" fill="#FBBEBE"/>
<path id="Vector_32" opacity="0.1" d="M127.117 55.829C125.861 58.5672 123.731 61.0479 120.877 62.0553C119.358 62.5904 117.72 62.6862 116.172 63.1255C114.623 63.5648 113.062 64.4732 112.517 65.9761C112.317 66.6345 112.22 67.3198 112.231 68.0075C111.995 74.4651 111.802 81.1769 114.397 87.1027C116.64 92.2159 120.75 96.2556 124.811 100.107C129.562 104.612 134.593 109.181 140.843 111.196C144.498 112.368 148.801 112.497 151.824 110.162C153.067 109.2 153.991 107.902 154.898 106.621C156.892 103.797 158.918 100.933 160.174 97.7024C162.749 91.0962 161.882 83.7369 160.975 76.7178C160.97 76.3009 160.811 75.9004 160.53 75.5914C160.178 75.2974 159.663 75.3371 159.201 75.3635C155.968 75.5551 152.439 73.9068 151.356 70.8746C150.891 69.5534 150.904 68.1396 150.927 66.7523L151.054 58.7522C151.054 57.8901 151.077 56.9983 150.751 56.1956C150.183 54.8017 148.758 53.9858 147.392 53.312C142.989 51.1223 138.398 49.325 133.676 47.9412C131.609 47.3367 130.037 46.3293 129.117 48.5357C128.143 50.8314 128.187 53.4937 127.117 55.829Z" fill="black"/>
<path id="Vector_33" d="M148.91 62.3262C162.49 62.3262 173.498 51.3827 173.498 37.8832C173.498 24.3838 162.49 13.4403 148.91 13.4403C135.331 13.4403 124.322 24.3838 124.322 37.8832C124.322 51.3827 135.331 62.3262 148.91 62.3262Z" fill="#FBBEBE"/>
<path id="Vector_34" d="M151.246 76.2058L148.498 82.9871C147.877 84.5197 147.246 86.0689 146.289 87.4198C143.647 91.1424 138.444 92.8468 134.104 91.4133C130.008 90.0689 126.372 86.2571 122.143 87.1721C119.95 87.6477 118.202 89.3984 117.225 91.4067C116.248 93.4149 115.936 95.6743 115.727 97.8972C114.76 108.179 115.746 118.551 118.634 128.471C118.933 129.495 119.298 130.568 120.093 131.275C121.063 132.121 122.455 132.246 123.748 132.319C129.728 132.673 135.72 132.883 141.723 132.946C145.412 132.989 149.116 132.976 152.758 132.408C156.4 131.84 159.885 130.756 163.477 130.043C166.836 129.382 170.275 129.075 173.558 128.114C174.093 127.959 174.658 127.761 174.987 127.318C175.242 126.896 175.358 126.405 175.319 125.914C175.319 124.012 174.725 122.162 174.08 120.372C172.419 115.803 170.478 111.308 169.554 106.541C168.282 99.9848 169.029 93.23 168.89 86.5511C168.843 84.1597 168.677 81.7286 167.85 79.4792C167.022 77.2298 165.457 75.162 163.255 74.1942C159.457 72.5129 153.064 71.7598 151.246 76.2058Z" fill="#377A60"/>
<path id="Vector_35" d="M138.61 108.295C136.856 106.816 136.949 104.176 136.739 101.897C136.357 97.623 134.487 93.6395 132.646 89.7551L127.147 78.1414C124.847 73.299 122.495 67.7861 124.392 62.7687C125.027 61.0776 126.113 59.5713 126.672 57.8537C127.23 56.1361 127.117 53.9891 125.701 52.8561C123.9 51.416 121.239 52.397 119.202 53.4903C115.457 55.5096 111.847 57.7659 108.393 60.2452C107.456 60.9058 106.473 61.6886 106.167 62.7985C105.978 63.4888 106.077 64.2452 105.812 64.9124C105.293 66.2337 103.678 66.6301 102.299 66.9406C96.6162 68.2428 91.2599 70.6837 86.5581 74.1141C81.8562 77.5444 77.9076 81.8921 74.9536 86.8913C73.9736 88.5136 73.1927 90.2469 72.6277 92.054C71.9632 94.3662 71.7904 96.7675 71.6309 99.1557C71.2056 105.299 70.7958 111.44 70.4015 117.577C70.2254 120.296 70.0526 123.08 70.8002 125.699C71.282 127.384 72.1293 128.96 72.4882 130.677C73.2158 134.248 71.6807 137.894 69.7635 140.999C67.8463 144.104 65.4872 147.018 64.2844 150.443C63.5776 152.622 63.2144 154.898 63.2078 157.188C63.0309 164.916 65.1857 172.521 69.3947 179.021C73.4783 179.619 76.5352 175.583 80.2865 173.868C85.7856 171.361 92.7301 173.37 97.8969 170.271C99.1595 169.515 100.253 168.484 101.588 167.86C102.801 167.295 104.147 167.094 105.473 166.902C110.37 166.199 115.331 165.548 120.252 166.076C127.23 166.826 134.443 169.908 141.006 167.421C142.624 166.806 144.106 165.878 145.731 165.28C151.711 163.077 158.357 165.71 164.726 165.224C163.73 165.171 163.284 164.048 163.098 163.061C162.68 160.87 162.31 158.668 161.989 156.455C161.706 154.535 161.464 152.563 161.905 150.677C162.311 148.927 163.281 147.374 164.095 145.769C166.664 140.715 167.75 135.047 169.953 129.822C171 127.331 172.279 124.953 173.522 122.555C178.539 112.711 182.447 102.347 185.174 91.651C182.274 86.4751 179.645 81.0811 176.745 75.9085C175.904 74.4089 175.04 72.8828 173.754 71.7234C171.913 70.0455 169.418 69.3155 167.016 68.6383C164.952 68.0537 162.859 67.4657 160.703 67.4624C158.546 67.4591 152.479 65.2196 151.024 66.782C149.522 68.3939 152.901 73.5996 152.825 75.7929C152.748 77.9861 152.991 80.2058 152.625 82.3726C152.094 85.5337 150.299 88.3512 149.485 91.4495C149.163 92.916 148.916 94.3977 148.744 95.8889C148.202 99.2237 147.323 102.496 146.123 105.656C145.904 106.322 145.579 106.948 145.162 107.513C143.587 109.428 141.056 108.702 138.61 108.295Z" fill="#5D8AAB"/>
<path id="Vector_36" d="M187.427 143.1C188.058 143.866 188.922 144.392 189.703 145.003C192.777 147.397 194.584 151.041 197.299 153.832C198.668 155.242 200.259 156.422 201.718 157.739C205.111 160.811 207.739 164.607 210.337 168.366C211.002 169.323 211.666 170.304 211.999 171.418C212.58 173.317 212.108 175.434 211.048 177.119C209.988 178.803 208.39 180.092 206.666 181.102C205.765 181.633 204.827 182.097 203.858 182.49C201.864 183.296 199.964 181.112 201.087 179.289C201.8 178.146 202.452 176.966 203.041 175.755C203.416 175.083 203.632 174.335 203.672 173.568C203.645 172.22 202.575 171.077 201.346 170.513C200.117 169.948 198.731 169.852 197.385 169.687C189.775 168.773 182.535 165.909 176.373 161.376C172.884 158.8 169.521 155.024 170.076 150.74C170.488 147.543 173.033 144.999 175.828 143.361C178.097 142.037 180.594 141.141 183.191 140.719C183.922 140.6 185.756 140.101 186.41 140.603C186.992 141.032 186.882 142.439 187.427 143.1Z" fill="#FBBEBE"/>
<path id="Vector_37" opacity="0.1" d="M187.427 143.1C188.058 143.866 188.922 144.392 189.703 145.003C192.777 147.397 194.584 151.041 197.299 153.832C198.668 155.242 200.259 156.422 201.718 157.739C205.111 160.811 207.739 164.607 210.337 168.366C211.002 169.323 211.666 170.304 211.999 171.418C212.58 173.317 212.108 175.434 211.048 177.119C209.988 178.803 208.39 180.092 206.666 181.102C205.765 181.633 204.827 182.097 203.858 182.49C201.864 183.296 199.964 181.112 201.087 179.289C201.8 178.146 202.452 176.966 203.041 175.755C203.416 175.083 203.632 174.335 203.672 173.568C203.645 172.22 202.575 171.077 201.346 170.513C200.117 169.948 198.731 169.852 197.385 169.687C189.775 168.773 182.535 165.909 176.373 161.376C172.884 158.8 169.521 155.024 170.076 150.74C170.488 147.543 173.033 144.999 175.828 143.361C178.097 142.037 180.594 141.141 183.191 140.719C183.922 140.6 185.756 140.101 186.41 140.603C186.992 141.032 186.882 142.439 187.427 143.1Z" fill="black"/>
<path id="Vector_38" d="M159.726 24.073C156.403 27.4554 151.067 27.5974 146.309 27.5148L146.465 25.6618L139.773 28.0466C141.508 26.765 142.996 25.1828 144.166 23.376C143.298 22.6196 141.939 22.6428 140.909 23.1646C139.879 23.6865 139.122 24.6081 138.474 25.5594C136.576 28.3858 135.367 31.6136 134.945 34.986C134.523 38.3584 134.898 41.7822 136.042 44.9849C134.712 45.7182 133.018 45.5035 131.742 44.7042C130.466 43.9048 129.576 42.6034 128.971 41.2293C128.575 40.3309 128.163 39.2673 127.22 38.9865C126.429 38.752 125.558 39.2309 125.12 39.9279C124.726 40.6554 124.567 41.4857 124.665 42.3061C124.788 44.2285 126.2 46.0518 126.482 47.9544C126.765 49.857 129.622 51.3368 128.143 52.5787C127.718 52.9388 123.355 53.9198 122.804 53.8339C122.056 53.7183 121.561 53.0015 121.249 52.3178C119.76 49.0675 120.295 45.269 119.415 41.8073C118.707 39.0228 117.112 36.5521 115.54 34.1408C115.118 33.4383 114.62 32.7837 114.055 32.1887C113.534 31.68 112.889 31.2407 112.636 30.5603C112.384 29.8798 112.849 28.9087 113.57 29.0177C112.406 27.8991 111.154 26.8751 109.825 25.9558C111.141 24.2998 112.428 22.6229 113.686 20.9251C114.118 20.3438 114.567 19.6039 114.251 18.9433C114.067 18.6406 113.807 18.3903 113.497 18.2166L110.061 15.9044C109.985 14.3355 113.198 14.9135 113.693 13.4304C113.78 13.0363 113.75 12.6254 113.607 12.2479L112.437 8.00673L116.879 10.0084C117.418 10.2528 117.993 10.5006 118.581 10.4147C119.754 10.2462 120.318 8.86553 120.378 7.68633C120.438 6.50712 120.249 5.23874 120.837 4.21147C122.848 4.1322 124.858 4.14651 126.868 4.25441C126.994 3.24929 126.727 2.23426 126.12 1.42035L140.966 0.601182C143.501 0.462452 146.106 0.333635 148.515 1.12638C149.332 1.39723 150.156 1.787 151.014 1.69121C151.871 1.59542 152.735 0.809281 152.489 -0.0098877C154.714 1.23891 156.749 2.79594 158.533 4.61445C159.014 5.18458 159.597 5.66255 160.251 6.02487C160.915 6.33536 161.826 6.32215 162.331 5.77384C162.736 5.33452 162.939 4.56821 163.537 4.54178C163.909 4.54178 164.201 4.83245 164.437 5.12643C165.286 6.20595 165.977 7.39912 166.491 8.67065C167.556 8.52791 168.6 8.25499 169.598 7.85809C168.561 8.7268 168.534 10.3453 169.029 11.6005C169.524 12.8557 170.422 13.9127 171.023 15.115C171.621 16.4063 172.023 17.7789 172.216 19.1877C172.518 20.9516 172.522 23.1746 170.947 24.04C169.578 24.7931 167.88 23.9904 166.627 23.049C163.178 20.4792 162.52 21.2323 159.726 24.073Z" fill="#725D54"/>
<path id="Vector_39" d="M177.1 180.131L200.123 178.067C201.049 177.984 201.906 177.548 202.514 176.85C203.123 176.152 203.435 175.247 203.386 174.324L203.37 173.994C203.331 173.26 203.066 172.555 202.609 171.977C202.152 171.398 201.526 170.975 200.818 170.764L197.096 169.654C196.761 169.554 196.413 169.503 196.063 169.502H187.62C187.389 169.503 187.159 169.525 186.932 169.568C185.148 169.915 176.937 171.52 176.632 171.814C176.469 171.979 175.492 172.706 174.548 173.399C173.984 173.814 173.554 174.385 173.312 175.04C173.071 175.695 173.028 176.407 173.189 177.086L173.259 177.39C173.456 178.232 173.955 178.974 174.661 179.478C175.368 179.983 176.234 180.215 177.1 180.131Z" fill="#464A5F"/>
<path id="Vector_40" d="M165.856 172.977L175.16 170.334L192.438 168.022C192.438 168.022 203.403 165.049 204.4 174.298L203.469 175.864C203.469 175.864 204.4 170.004 193.102 171.655C193.102 171.655 172.791 170.978 173.645 178.922C173.645 178.916 166.521 177.601 165.856 172.977Z" fill="#377A60"/>
<path id="Vector_41" d="M178.482 167.365C179.767 167.365 180.808 167.217 180.808 167.034C180.808 166.852 179.767 166.704 178.482 166.704C177.198 166.704 176.157 166.852 176.157 167.034C176.157 167.217 177.198 167.365 178.482 167.365Z" fill="#377A60"/>
<path id="Vector_42" d="M199.249 167.2H197.588V170.172H199.249V167.2Z" fill="#377A60"/>
<path id="Vector_43" d="M179.313 167.2H177.652V170.172H179.313V167.2Z" fill="#377A60"/>
<path id="Vector_44" d="M200.562 167.469C200.726 167.043 199.748 166.275 198.377 165.753C197.006 165.231 195.762 165.153 195.598 165.578C195.433 166.004 196.412 166.773 197.783 167.295C199.154 167.817 200.398 167.895 200.562 167.469Z" fill="#377A60"/>
<path id="Vector_45" d="M104.064 172.491C104.775 173.228 105.499 173.977 106.413 174.44C107.317 174.839 108.28 175.092 109.264 175.19C119.329 176.731 129.36 178.455 139.354 180.362C142.169 180.904 145.003 181.466 147.661 182.552C149.017 183.111 150.319 183.804 151.648 184.389C159.291 187.722 167.93 187.507 176.266 187.23C177.898 187.177 179.589 187.111 181.061 186.433C182.161 185.935 183.167 184.987 183.267 183.791C183.44 181.713 181.064 180.488 179.167 179.593C174.638 177.469 170.691 174.014 168.305 169.634C167.88 168.861 167.534 167.821 168.132 167.166C168.581 166.678 169.342 166.674 170.01 166.701C172.801 166.809 175.592 166.78 178.383 166.615C179.828 166.526 181.742 165.845 181.513 164.428C181.413 163.82 180.908 163.368 180.43 162.972C177.914 160.871 175.06 158.707 171.774 158.77C170.049 158.803 168.405 159.457 166.79 160.009C158.091 162.942 148.724 163.104 139.544 163.044C137.298 163.044 135.035 163.001 132.835 162.545C131.028 162.121 129.259 161.554 127.542 160.851C121.973 158.74 116.381 156.616 111.224 153.654C109.174 152.478 106.888 151.117 104.602 151.721C103.576 152.052 102.643 152.618 101.877 153.373C99.1562 155.817 96.8602 158.81 97.6344 162.562C98.4219 166.506 101.359 169.683 104.064 172.491Z" fill="#FBBEBE"/>
<path id="Vector_46" d="M102.582 108.702C103.439 111.46 103.941 114.38 105.416 116.867C106.981 119.509 109.586 121.557 110.49 124.487C111.128 126.562 110.822 128.781 110.822 130.958C110.822 133.425 111.291 135.969 112.663 138.023C113.354 139.06 114.255 139.939 115.042 140.907C118.534 145.201 119.611 150.935 120.046 156.431C116.723 154.562 112.836 152.633 109.237 153.918C107.782 154.44 106.553 155.444 105.41 156.484C103.191 158.498 101.164 160.709 99.3522 163.09C98.4019 164.336 97.4683 165.858 97.8803 167.365C95.9132 164.524 93.9196 161.664 92.3912 158.539C91.308 156.306 90.4673 153.948 89.1681 151.827C87.5334 149.161 85.2307 146.971 83.2936 144.514C78.9408 138.991 76.4987 132.154 75.3125 125.253C74.1262 118.353 74.0764 111.285 74.113 104.269C74.113 101.957 74.1628 99.5521 75.143 97.448C75.7245 96.1961 76.6116 95.1127 77.4921 94.0458C78.6086 92.6883 79.7582 91.3043 81.2767 90.4124C86.1079 87.585 91.2913 92.2721 94.521 95.4794C98.2459 99.1725 101.012 103.71 102.582 108.702Z" fill="#5D8AAB"/>
<path id="Vector_47" d="M185.869 92.8468C186.317 93.2527 186.678 93.7435 186.932 94.2903C187.185 94.9509 187.118 95.6776 187.065 96.3812C186.75 100.57 187.049 104.783 187.952 108.887C188.494 111.367 189.178 114.238 187.587 116.223C187.341 116.484 187.118 116.766 186.922 117.065C186.184 118.439 187.547 119.936 188.583 121.115C191.733 124.748 192.238 130.433 189.796 134.578C189.334 135.368 188.77 136.114 188.51 136.986C188.335 137.703 188.266 138.442 188.304 139.179L188.318 144.705C184.825 144.24 180.921 143.876 178.114 145.994C175.745 147.777 174.808 150.882 172.797 153.043C170.847 155.123 167.813 156.465 167.052 159.206L167.092 147.787C167.142 146.27 167.06 144.752 166.846 143.249C166.448 140.887 165.414 138.677 164.81 136.359C164.019 133.326 163.969 130.159 163.922 127.024C163.846 121.848 163.773 116.616 164.853 111.552C165.295 109.491 165.923 107.473 166.408 105.422C167.288 101.722 167.737 97.8709 169.282 94.396C170.827 90.9211 173.861 87.77 177.668 87.3967C181.679 86.9971 183.38 90.2605 185.869 92.8468Z" fill="#5D8AAB"/>
<path id="Vector_48" d="M200.743 166.952C201.855 166.314 201.79 164.131 200.597 162.077C199.404 160.024 197.536 158.876 196.423 159.515C195.311 160.153 195.376 162.336 196.569 164.39C197.761 166.443 199.63 167.591 200.743 166.952Z" fill="#FBBEBE"/>
<path id="Vector_49" opacity="0.1" d="M200.743 166.952C201.855 166.314 201.79 164.131 200.597 162.077C199.404 160.024 197.536 158.876 196.423 159.515C195.311 160.153 195.376 162.336 196.569 164.39C197.761 166.443 199.63 167.591 200.743 166.952Z" fill="black"/>
</g>
<defs>
<clipPath id="clip0_63_523">
<rect width="346" height="189" fill="white"/>
</clipPath>
</defs>
</svg>
