<svg width="398" height="271" viewBox="0 0 398 271" fill="none" xmlns="http://www.w3.org/2000/svg">
<g id="Frame 17">
<g id="SVG/multitasking 1" clip-path="url(#clip0_64_1043)">
<path id="Vector" d="M189.64 138.043H173.047L174.324 124.482H187.513L189.64 138.043Z" fill="#E2ABAB"/>
<path id="Vector_2" opacity="0.1" d="M189.64 138.043H173.047L174.324 124.482H187.513L189.64 138.043Z" fill="#E2ABAB"/>
<g id="Group">
<path id="Vector_3" d="M313.829 251.663C313.829 251.859 313.669 252.019 313.472 252.019H65.7722V251.307H313.472C313.669 251.307 313.829 251.466 313.829 251.663Z" fill="#E6E6E6"/>
<path id="Vector_4" d="M165.831 236.574L168.62 249.037L177.35 247.83L174.925 235.028L165.831 236.574Z" fill="#E2ABAB"/>
<path id="Vector_5" d="M212.636 236.574L209.847 249.037L201.116 247.83L203.542 235.028L212.636 236.574Z" fill="#E2ABAB"/>
<path id="Vector_6" d="M229.148 207.942L213.435 160.269C209.919 149.604 199.924 142.394 188.655 142.394C176.119 142.394 165.357 151.277 163.027 163.545L154.337 209.315C153.093 215.869 157.998 221.942 164.618 222.213V253.506H167.043V222.226H217.971V253.506H220.396V222.102C226.948 221.135 231.294 214.454 229.148 207.942Z" fill="#CCCCCC"/>
<path id="Vector_7" d="M196.63 175.486L167.043 176.453C167.043 176.453 155.887 196.259 175.531 198.916C195.175 201.573 212.393 198.675 213.121 190.221C213.849 181.767 207.786 175.245 196.63 175.486Z" fill="#2F2E41"/>
<path id="Vector_8" d="M172.621 177.66C172.621 177.66 161.465 178.868 160.495 182.008C159.525 185.148 159.04 198.916 159.04 198.916L163.405 238.772L175.774 237.322L173.106 199.158L187.414 196.018L172.621 177.66Z" fill="#2F2E41"/>
<path id="Vector_9" d="M170.196 243.361C170.196 243.361 166.526 240.946 165.572 242.033C164.618 243.12 159.525 248.434 159.525 248.434L150.552 253.989C150.552 253.989 142.792 261.236 153.705 260.994C164.618 260.753 170.196 257.48 170.196 257.48C170.196 257.48 180.624 257.371 180.381 254.472C180.139 251.574 176.62 243.977 176.62 243.977L170.196 243.361Z" fill="#2F2E41"/>
<path id="Vector_10" d="M205.846 177.66C205.846 177.66 217.001 178.868 217.971 182.008C218.941 185.148 219.426 198.916 219.426 198.916L215.061 238.772L202.693 237.322L205.36 199.158L191.052 196.018L205.846 177.66Z" fill="#2F2E41"/>
<path id="Vector_11" d="M208.271 243.361C208.271 243.361 211.941 240.946 212.895 242.033C213.848 243.12 218.941 248.434 218.941 248.434L227.914 253.989C227.914 253.989 235.675 261.236 224.762 260.994C213.849 260.753 208.271 257.48 208.271 257.48C208.271 257.48 197.843 257.371 198.085 254.472C198.328 251.574 201.846 243.977 201.846 243.977L208.271 243.361Z" fill="#2F2E41"/>
<path id="Vector_12" d="M187.899 131.042H173.821L163.163 135.873L165.588 167.757C165.588 167.757 162.565 177.45 166.259 178.038C169.953 178.626 190.325 182.25 195.902 179.11C201.48 175.969 206.331 176.936 206.331 176.936L199.783 134.665L187.899 131.042Z" fill="#5D8AAB"/>
<path id="Vector_13" d="M181.23 129.713C188.463 129.713 194.326 123.873 194.326 116.67C194.326 109.466 188.463 103.626 181.23 103.626C173.998 103.626 168.134 109.466 168.134 116.67C168.134 123.873 173.998 129.713 181.23 129.713Z" fill="#FBBEBE"/>
<path id="uuid-7ddbc389-7cdc-46c2-935f-0ff8b929a928-246" d="M192.533 175.989C189.38 177.032 186.284 176.258 185.618 174.259C184.952 172.261 186.967 169.795 190.121 168.752C191.376 168.319 192.716 168.19 194.03 168.378L207.445 164.126L209.314 170.439L195.891 173.96C194.95 174.894 193.799 175.59 192.533 175.989Z" fill="#A0616A"/>
<g id="Group_2">
<path id="uuid-04944d89-6e1c-4a13-b790-56aa68a198ee-247" d="M131.068 161.872C128.049 160.49 126.318 157.819 127.201 155.905C128.084 153.992 131.247 153.561 134.266 154.944C135.48 155.48 136.548 156.297 137.379 157.328L150.095 163.343L147.134 169.227L134.913 162.672C133.585 162.715 132.267 162.44 131.068 161.872Z" fill="#FBBEBE"/>
<path id="Vector_14" d="M163.119 135.805C163.119 135.805 168.165 137.856 168.008 143.33C167.852 148.804 163.995 156.454 163.995 156.454C163.995 156.454 163.725 173.723 158.985 175.593C154.244 177.462 139.595 165.482 139.595 165.482L142.978 159.044L149.302 158.318L163.119 135.805Z" fill="#5D8AAB"/>
</g>
<path id="Vector_15" d="M196.145 135.631C196.145 135.631 201.238 133.699 204.875 137.805C208.513 141.911 210.938 150.124 210.938 150.124C210.938 150.124 222.579 162.926 220.396 167.515C218.214 172.105 199.298 173.312 199.298 173.312L197.358 166.308L201.48 161.477L196.145 135.631Z" fill="#5D8AAB"/>
<path id="Vector_16" d="M209.324 183.337H167.929C165.614 183.337 163.73 181.46 163.73 179.154V155.152C163.73 152.846 165.614 150.969 167.929 150.969H209.324C211.64 150.969 213.524 152.846 213.524 155.152V179.154C213.524 181.46 211.64 183.337 209.324 183.337Z" fill="#377A60"/>
<g id="Group_3">
<path id="Vector_17" d="M110.163 159.096L121.622 156.443L122.443 158.813L127.986 157.322L131.643 156.338L135.194 149.467L132.674 142.194L125.172 142.124L122.878 142.573L116.478 143.827C115.937 144.72 116.232 145.881 117.136 146.408L117.432 146.581L108.429 148.134C108.429 148.134 105.553 153.232 110.163 159.096Z" fill="#3F3D56"/>
<path id="Vector_18" d="M122.878 142.573L127.986 157.322L131.643 156.338L135.194 149.467L132.674 142.194L125.172 142.124L122.878 142.573Z" fill="#2F2E41"/>
<path id="Vector_19" d="M120.939 143.188C121.728 143.014 122.297 142.555 122.209 142.162C122.122 141.769 121.412 141.592 120.623 141.766C119.835 141.939 119.266 142.399 119.353 142.792C119.441 143.184 120.151 143.362 120.939 143.188Z" fill="#3F3D56"/>
</g>
<g id="Group_4">
<path id="Vector_20" d="M300.774 253.045L295.275 241.471L295.243 241.494V226.45H290.297V241.494L290.264 241.471L284.765 253.373C284.602 253.658 284.702 254.021 284.988 254.184C285.231 254.322 285.537 254.273 285.725 254.067L291.349 247.513L292.259 253.481C292.295 253.807 292.59 254.042 292.918 254.006C293.195 253.975 293.414 253.757 293.445 253.481L294.345 247.578L299.814 253.739C300.036 253.982 300.413 254 300.657 253.779C300.864 253.592 300.912 253.287 300.774 253.045Z" fill="#2F2E41"/>
<path id="Vector_21" d="M261.495 209.574C260.62 215.344 273.291 225.488 291.971 228.3C310.652 231.113 328.876 227.05 329.752 221.28C330.628 215.51 316.105 209.617 297.425 206.804C278.745 203.992 262.371 203.804 261.495 209.574Z" fill="#377A60"/>
<path id="Vector_22" opacity="0.3" d="M261.495 209.574C260.62 215.344 273.291 225.488 291.971 228.3C310.652 231.113 328.876 227.05 329.752 221.28C330.628 215.51 316.105 209.617 297.425 206.804C278.745 203.992 262.371 203.804 261.495 209.574Z" fill="black"/>
<path id="Vector_23" d="M262.231 208.73C261.51 213.482 273.875 221.639 292.555 224.451C311.236 227.263 329.222 225.254 329.943 220.501C330.664 215.749 316.105 209.617 297.425 206.804C278.745 203.992 262.953 203.977 262.231 208.73Z" fill="#377A60"/>
</g>
<g id="Group_5">
<path id="Vector_24" d="M304.533 138.082H234.738C231.929 138.082 229.643 135.805 229.643 133.006V80.4406C229.643 77.6423 231.929 75.3655 234.738 75.3655H304.533C307.343 75.3655 309.628 77.6423 309.628 80.4406V133.006C309.628 135.805 307.343 138.082 304.533 138.082Z" fill="white"/>
<path id="Vector_25" d="M304.533 138.082H234.738C231.929 138.082 229.643 135.805 229.643 133.006V80.4406C229.643 77.6423 231.929 75.3655 234.738 75.3655H304.533C307.343 75.3655 309.628 77.6423 309.628 80.4406V133.006C309.628 135.805 307.343 138.082 304.533 138.082ZM234.738 76.213C232.398 76.213 230.494 78.1096 230.494 80.4406V133.006C230.494 135.338 232.398 137.234 234.738 137.234H304.533C306.873 137.234 308.777 135.338 308.777 133.006V80.4406C308.777 78.1095 306.873 76.213 304.533 76.213H234.738Z" fill="#3F3D56"/>
<path id="Vector_26" d="M296.865 81.7219C297.57 81.7219 298.141 81.1527 298.141 80.4506C298.141 79.7485 297.57 79.1793 296.865 79.1793C296.16 79.1793 295.588 79.7485 295.588 80.4506C295.588 81.1527 296.16 81.7219 296.865 81.7219Z" fill="#3F3D56"/>
<path id="Vector_27" d="M300.268 81.7219C300.973 81.7219 301.545 81.1527 301.545 80.4506C301.545 79.7485 300.973 79.1793 300.268 79.1793C299.563 79.1793 298.992 79.7485 298.992 80.4506C298.992 81.1527 299.563 81.7219 300.268 81.7219Z" fill="#3F3D56"/>
<path id="Vector_28" d="M303.672 81.7219C304.377 81.7219 304.948 81.1527 304.948 80.4506C304.948 79.7485 304.377 79.1793 303.672 79.1793C302.967 79.1793 302.396 79.7485 302.396 80.4506C302.396 81.1527 302.967 81.7219 303.672 81.7219Z" fill="#3F3D56"/>
<path id="Vector_29" d="M236.876 101.003C236.524 101.003 236.237 101.288 236.237 101.638C236.237 101.809 236.304 101.967 236.424 102.084C236.545 102.208 236.704 102.274 236.876 102.274H302.821C303.173 102.274 303.459 101.989 303.459 101.638C303.459 101.468 303.393 101.309 303.273 101.193C303.151 101.069 302.992 101.003 302.821 101.003H236.876Z" fill="#E6E6E6"/>
<path id="Vector_30" d="M290.908 100.791V102.486H236.876C236.642 102.486 236.429 102.393 236.276 102.236C236.118 102.083 236.025 101.871 236.025 101.638C236.025 101.172 236.408 100.791 236.876 100.791H290.908Z" fill="#377A60"/>
<path id="Vector_31" d="M301.757 97.6127H293.248C292.31 97.6127 291.547 96.8525 291.547 95.9177C291.547 94.9829 292.31 94.2227 293.248 94.2227H301.757C302.696 94.2227 303.459 94.9829 303.459 95.9177C303.459 96.8525 302.696 97.6127 301.757 97.6127Z" fill="#E6E6E6"/>
<path id="Vector_32" d="M246.023 88.7138H237.514C236.575 88.7138 235.812 87.9536 235.812 87.0188C235.812 86.0839 236.575 85.3237 237.514 85.3237H246.023C246.961 85.3237 247.725 86.0839 247.725 87.0188C247.725 87.9536 246.961 88.7138 246.023 88.7138Z" fill="#E6E6E6"/>
<path id="Vector_33" d="M236.876 120.072C236.524 120.072 236.237 120.357 236.237 120.708C236.237 120.878 236.304 121.037 236.424 121.153C236.545 121.277 236.704 121.343 236.876 121.343H302.821C303.173 121.343 303.459 121.058 303.459 120.708C303.459 120.537 303.393 120.379 303.273 120.262C303.151 120.138 302.992 120.072 302.821 120.072H236.876Z" fill="#E6E6E6"/>
<path id="Vector_34" d="M258.148 119.86V121.555H236.876C236.642 121.555 236.429 121.462 236.276 121.305C236.118 121.152 236.025 120.941 236.025 120.708C236.025 120.241 236.408 119.86 236.876 119.86H258.148Z" fill="#377A60"/>
<path id="Vector_35" d="M301.757 116.682H293.248C292.31 116.682 291.547 115.922 291.547 114.987C291.547 114.052 292.31 113.292 293.248 113.292H301.757C302.696 113.292 303.459 114.052 303.459 114.987C303.459 115.922 302.696 116.682 301.757 116.682Z" fill="#E6E6E6"/>
</g>
</g>
</g>
</g>
<defs>
<clipPath id="clip0_64_1043">
<rect width="378" height="251" fill="white" transform="translate(10 10)"/>
</clipPath>
</defs>
</svg>
