<svg width="64" height="64" viewBox="0 0 64 64" fill="none" xmlns="http://www.w3.org/2000/svg">
<g id="Iconos/Contactos/Direccion">
<rect width="64" height="64" rx="8" fill="#5D8AAB"/>
<path id="Direccion" d="M32 31.375C31.1949 31.375 30.4227 31.0458 29.8534 30.4597C29.2841 29.8737 28.9643 29.0788 28.9643 28.25C28.9643 27.4212 29.2841 26.6263 29.8534 26.0403C30.4227 25.4542 31.1949 25.125 32 25.125C32.8051 25.125 33.5773 25.4542 34.1466 26.0403C34.7159 26.6263 35.0357 27.4212 35.0357 28.25C35.0357 28.6604 34.9572 29.0667 34.8046 29.4459C34.6521 29.825 34.4285 30.1695 34.1466 30.4597C33.8647 30.7499 33.53 30.9801 33.1617 31.1371C32.7934 31.2942 32.3987 31.375 32 31.375ZM32 19.5C29.7457 19.5 27.5837 20.4219 25.9896 22.0628C24.3955 23.7038 23.5 25.9294 23.5 28.25C23.5 34.8125 32 44.5 32 44.5C32 44.5 40.5 34.8125 40.5 28.25C40.5 25.9294 39.6045 23.7038 38.0104 22.0628C36.4163 20.4219 34.2543 19.5 32 19.5Z" fill="white"/>
</g>
</svg>
