<svg width="64" height="65" viewBox="0 0 64 65" fill="none" xmlns="http://www.w3.org/2000/svg">
<g id="Iconos/Contactos/Email">
<rect y="0.5" width="64" height="64" rx="8" fill="#5D8AAB"/>
<path id="Email" d="M20.6719 21.5H43.3281C45.079 21.5 46.5 22.9373 46.5 24.7083V40.2917C46.5 41.1426 46.1658 41.9586 45.571 42.5603C44.9761 43.162 44.1694 43.5 43.3281 43.5H20.6719C19.8306 43.5 19.0239 43.162 18.429 42.5603C17.8342 41.9586 17.5 41.1426 17.5 40.2917V24.7083C17.5 22.9373 18.921 21.5 20.6719 21.5ZM20.2188 40.2935C20.2188 40.5465 20.4218 40.7518 20.6719 40.7518H43.3281C43.4483 40.7518 43.5636 40.7035 43.6485 40.6176C43.7335 40.5316 43.7812 40.4151 43.7812 40.2935V28.4832L32.6888 35.0612C32.48 35.1853 32.2422 35.2507 32 35.2507C31.7578 35.2507 31.52 35.1853 31.3112 35.0612L20.2188 28.4832V40.2935ZM43.7812 25.295V24.7083C43.7812 24.5868 43.7335 24.4702 43.6485 24.3842C43.5636 24.2983 43.4483 24.25 43.3281 24.25H20.6719C20.5517 24.25 20.4364 24.2983 20.3515 24.3842C20.2665 24.4702 20.2188 24.5868 20.2188 24.7083V25.295L32 32.28L43.7812 25.295Z" fill="white"/>
</g>
</svg>
