<svg width="64" height="65" viewBox="0 0 64 65" fill="none" xmlns="http://www.w3.org/2000/svg">
<g id="Iconos/Contactos/Nombre">
<rect y="0.5" width="64" height="64" rx="8" fill="#5D8AAB"/>
<path id="Nombre" d="M20.7222 21C18.945 21 17.5 22.4734 17.5 24.2857V40.7143C17.5 42.5266 18.945 44 20.7222 44H43.2778C45.055 44 46.5 42.5266 46.5 40.7143V24.2857C46.5 22.4734 45.055 21 43.2778 21H20.7222ZM24.75 34.1429H27.9722C30.1976 34.1429 32 35.9808 32 38.25C32 38.7018 31.6375 39.0714 31.1944 39.0714H21.5278C21.0847 39.0714 20.7222 38.7018 20.7222 38.25C20.7222 35.9808 22.5247 34.1429 24.75 34.1429ZM23.1389 29.2143C23.1389 28.3429 23.4784 27.5071 24.0827 26.8909C24.6869 26.2747 25.5065 25.9286 26.3611 25.9286C27.2157 25.9286 28.0353 26.2747 28.6396 26.8909C29.2439 27.5071 29.5833 28.3429 29.5833 29.2143C29.5833 30.0857 29.2439 30.9214 28.6396 31.5376C28.0353 32.1538 27.2157 32.5 26.3611 32.5C25.5065 32.5 24.6869 32.1538 24.0827 31.5376C23.4784 30.9214 23.1389 30.0857 23.1389 29.2143ZM36.0278 27.5714H42.4722C42.9153 27.5714 43.2778 27.9411 43.2778 28.3929C43.2778 28.8446 42.9153 29.2143 42.4722 29.2143H36.0278C35.5847 29.2143 35.2222 28.8446 35.2222 28.3929C35.2222 27.9411 35.5847 27.5714 36.0278 27.5714ZM36.0278 30.8571H42.4722C42.9153 30.8571 43.2778 31.2268 43.2778 31.6786C43.2778 32.1304 42.9153 32.5 42.4722 32.5H36.0278C35.5847 32.5 35.2222 32.1304 35.2222 31.6786C35.2222 31.2268 35.5847 30.8571 36.0278 30.8571ZM36.0278 34.1429H42.4722C42.9153 34.1429 43.2778 34.5125 43.2778 34.9643C43.2778 35.4161 42.9153 35.7857 42.4722 35.7857H36.0278C35.5847 35.7857 35.2222 35.4161 35.2222 34.9643C35.2222 34.5125 35.5847 34.1429 36.0278 34.1429Z" fill="white"/>
</g>
</svg>
