<svg width="64" height="65" viewBox="0 0 64 65" fill="none" xmlns="http://www.w3.org/2000/svg">
<g id="Iconos/Contactos/Sitio-web">
<rect y="0.5" width="64" height="64" rx="8" fill="#5D8AAB"/>
<path id="Sitio-web" d="M31.6155 26.9668L22.3337 34.7635V43.1785C22.3337 43.3964 22.4186 43.6053 22.5696 43.7594C22.7207 43.9134 22.9256 44 23.1392 44L28.7807 43.9851C28.9936 43.984 29.1975 43.897 29.3477 43.743C29.4978 43.5891 29.5822 43.3808 29.5821 43.1636V38.2494C29.5821 38.0315 29.667 37.8225 29.8181 37.6685C29.9691 37.5144 30.174 37.4278 30.3876 37.4278H33.6096C33.8232 37.4278 34.0281 37.5144 34.1792 37.6685C34.3302 37.8225 34.4151 38.0315 34.4151 38.2494V43.16C34.4148 43.2681 34.4354 43.3752 34.4757 43.4752C34.516 43.5751 34.5753 43.666 34.6501 43.7426C34.725 43.8191 34.8139 43.8799 34.9118 43.9213C35.0097 43.9627 35.1146 43.9841 35.2206 43.9841L40.8601 44C41.0737 44 41.2786 43.9134 41.4296 43.7594C41.5807 43.6053 41.6656 43.3964 41.6656 43.1785V34.7579L32.3858 26.9668C32.2767 26.8771 32.1408 26.8282 32.0006 26.8282C31.8605 26.8282 31.7246 26.8771 31.6155 26.9668ZM46.277 32.2661L42.0683 28.7279V21.6161C42.0683 21.4527 42.0047 21.296 41.8914 21.1805C41.7781 21.0649 41.6244 21 41.4642 21H38.645C38.4847 21 38.3311 21.0649 38.2178 21.1805C38.1045 21.296 38.0408 21.4527 38.0408 21.6161V25.3443L33.5336 21.5622C33.1011 21.1992 32.5583 21.0007 31.9981 21.0007C31.438 21.0007 30.8952 21.1992 30.4627 21.5622L17.7192 32.2661C17.6581 32.3177 17.6075 32.381 17.5703 32.4526C17.5331 32.5241 17.5102 32.6024 17.5027 32.683C17.4952 32.7635 17.5034 32.8448 17.5267 32.9222C17.55 32.9996 17.5881 33.0715 17.6387 33.1339L18.9225 34.7255C18.9729 34.7881 19.035 34.8399 19.1051 34.878C19.1752 34.9161 19.252 34.9397 19.3311 34.9475C19.4102 34.9553 19.49 34.947 19.5659 34.9233C19.6419 34.8996 19.7125 34.8608 19.7738 34.8092L31.6155 24.8617C31.7246 24.772 31.8605 24.7231 32.0006 24.7231C32.1408 24.7231 32.2767 24.772 32.3858 24.8617L44.228 34.8092C44.2892 34.8608 44.3597 34.8997 44.4356 34.9235C44.5114 34.9473 44.5911 34.9556 44.6701 34.948C44.7491 34.9403 44.8259 34.9169 44.896 34.879C44.9662 34.8411 45.0283 34.7895 45.0788 34.7271L46.3626 33.1354C46.4131 33.0727 46.451 33.0004 46.4741 32.9227C46.4972 32.845 46.5049 32.7634 46.497 32.6826C46.489 32.6018 46.4655 32.5235 46.4277 32.452C46.39 32.3805 46.3388 32.3173 46.277 32.2661Z" fill="white"/>
</g>
</svg>
