<svg width="64" height="64" viewBox="0 0 64 64" fill="none" xmlns="http://www.w3.org/2000/svg">
<g id="Iconos/Contactos/Telefono">
<rect width="64" height="64" rx="8" fill="#5D8AAB"/>
<path id="Telefono" d="M41.2578 27.8C43.6008 30.0909 43.6008 33.6545 41.2578 36.0727L42.5595 37.3455C45.8135 34.4182 45.8135 29.5818 42.5595 26.5273L41.2578 27.8ZM39.826 29.2L38.5244 30.4727C39.1752 31.3636 39.1752 32.5091 38.5244 33.4L39.826 34.6727C41.388 33.1455 41.388 30.8545 39.826 29.2ZM34.6195 18H21.6033C20.9128 18 20.2507 18.2682 19.7625 18.7455C19.2743 19.2229 19 19.8704 19 20.5455V43.4545C19 44.1296 19.2743 44.7771 19.7625 45.2545C20.2507 45.7318 20.9128 46 21.6033 46H34.6195C35.3099 46 35.9721 45.7318 36.4603 45.2545C36.9485 44.7771 37.2228 44.1296 37.2228 43.4545V20.5455C37.2228 19.8704 36.9485 19.2229 36.4603 18.7455C35.9721 18.2682 35.3099 18 34.6195 18ZM34.6195 42.1818H21.6033V21.8182H34.6195V42.1818Z" fill="white"/>
</g>
</svg>
